<?xml version="1.0" encoding="utf-8"?>
<!-- Generator: Adobe Illustrator 23.0.6, SVG Export Plug-In . SVG Version: 6.00 Build 0)  -->
<svg version="1.1" id="Layer_1" xmlns="http://www.w3.org/2000/svg" xmlns:xlink="http://www.w3.org/1999/xlink" x="0px" y="0px"
	 viewBox="0 0 1435.51 255.35" style="enable-background:new 0 0 1435.51 255.35;" xml:space="preserve">
<style type="text/css">
	.st0{fill:#FFFFFF;}
	.st1{fill:#652D90;}
	.st2{fill:#EC313C;}
	.st3{fill:#3A8182;}
</style>
<g>
	<path class="st0" d="M1328.72,21.22c-45.23,0-84.08,34.4-84.08,79.27c0,12.19-9.92,23.11-22.11,23.11s-22.18-9.92-22.18-22.11
		V69.23c0-26.47-21.53-48-48-48c-15.45,0-29.22,7.35-38,18.73c-8.79-11.38-22.55-18.73-38-18.73h-72.24
		c-24.31,0-44.44,18.17-47.56,41.63c-14.63-24.88-41.67-41.63-72.56-41.63c-27.49,0-51.94,13.25-67.3,33.71
		c-6.1-19.51-24.33-33.71-45.83-33.71h-72.25c-24.31,0-44.44,18.17-47.56,41.63c-14.63-24.88-41.67-41.63-72.56-41.63h-36.12
		c-18.06,0-33.81,10.03-42,24.8c-8.19-14.77-23.95-24.8-42-24.8h-72.24c-15.74,0-29.74,7.62-38.5,19.37
		c-8.76-11.75-22.76-19.37-38.5-19.37h-72.25c-18.05,0-33.81,10.02-42,24.79c-8.19-14.77-23.95-24.79-42-24.79
		c-14.34,0-27.23,6.32-36.04,16.33l-2.27-2.27c-0.29-0.29-0.59-0.58-0.9-0.86c-0.57-0.54-1.15-1.07-1.73-1.57
		c-0.43-0.37-0.87-0.73-1.3-1.08c-0.7-0.56-1.42-1.11-2.1-1.59c-0.51-0.37-1.03-0.72-1.54-1.06c-0.71-0.46-1.43-0.92-2.17-1.35
		c-0.55-0.32-1.1-0.63-1.63-0.91c-0.77-0.41-1.55-0.8-2.37-1.18c-0.53-0.25-1.07-0.48-1.54-0.68c-0.9-0.38-1.77-0.72-2.68-1.04
		c-0.45-0.16-0.89-0.3-1.33-0.44c-1.06-0.34-2.06-0.63-3.11-0.89c-0.3-0.07-0.61-0.14-0.92-0.21c-1.23-0.28-2.39-0.5-3.54-0.67
		c-0.04-0.01-0.07-0.01-0.11-0.02c-0.2-0.03-0.39-0.05-0.6-0.08c-1.29-0.17-2.51-0.29-3.74-0.36c-0.06,0-0.11-0.01-0.17-0.01
		c-1.63-0.08-3.38-0.08-4.82,0c-0.08,0-0.17,0.01-0.25,0.01c-17.28,0.94-32.76,11.17-40.43,26.73c-0.1,0.2-0.19,0.39-0.25,0.52
		c-0.22,0.46-0.43,0.93-0.67,1.47c-0.13,0.29-0.25,0.58-0.36,0.83c-0.12,0.28-0.23,0.57-0.38,0.94c-0.19,0.48-0.37,0.96-0.56,1.51
		l-0.12,0.35c-1.59,4.66-2.46,9.5-2.57,14.41c-0.02,0.38-0.03,0.77-0.03,1.16v116.9c0,26.47,21.53,48,48,48
		c14.39,0,27.32-6.36,36.12-16.42c8.81,10.06,21.74,16.42,36.12,16.42c18.05,0,33.81-10.02,42-24.79
		c8.19,14.77,23.95,24.79,42,24.79h72.25c15.74,0,29.74-7.62,38.5-19.37c8.76,11.75,22.76,19.37,38.5,19.37
		c14.38,0,27.3-6.35,36.1-16.4c9.03,10.39,22.07,16.4,36.17,16.4c8.91,0,17.63-2.48,25.21-7.17c7.13-4.41,12.84-10.46,16.78-17.6
		c8.2,14.76,23.94,24.77,41.99,24.77h36.12c30.89,0,57.93-16.75,72.56-41.63c3.13,23.47,23.26,41.63,47.56,41.63h72.25
		c15.74,0,29.74-7.62,38.5-19.37c8.76,11.75,22.76,19.37,38.5,19.37c14.39,0,27.32-6.36,36.12-16.42
		c8.81,10.06,21.73,16.42,36.12,16.42c18.05,0,33.81-10.02,42-24.79c8.19,14.77,23.95,24.79,42,24.79c14.38,0,27.3-6.35,36.1-16.4
		c9.03,10.39,22.07,16.4,36.17,16.4c3.72,0,10.98-0.05,10.98-0.05c0.66,0.03,1.33,0.05,2,0.05c9.16,0,17.71-2.59,25-7.06
		c6.75,4.14,14.6,6.66,23,7.01c0,0,9.76,0.05,15,0.05h72.25c13.27,0,25.3-5.42,34-14.15c8.7,8.74,20.73,14.15,34,14.15
		c14.39,0,27.32-6.36,36.12-16.42c8.81,10.06,21.74,16.42,36.12,16.42c26.47,0,48-21.53,48-48v-80.77
		C1412.84,58.96,1375.11,21.22,1328.72,21.22z"/>
	<g>
		<path class="st1" d="M65.22,62.06c0.14-0.3,0.27-0.59,0.42-0.88C65.49,61.47,65.36,61.77,65.22,62.06z"/>
		<path class="st1" d="M65.88,60.8c0.21-0.36,0.41-0.72,0.64-1.06C66.29,60.08,66.08,60.44,65.88,60.8z"/>
		<path class="st1" d="M64.68,63.39c0.08-0.22,0.15-0.45,0.24-0.66C64.83,62.94,64.76,63.17,64.68,63.39z"/>
		<path class="st1" d="M63.93,66.07c0.01-0.04,0.01-0.07,0.02-0.11C63.93,66,63.93,66.04,63.93,66.07z"/>
		<path class="st1" d="M64.24,64.75c0.04-0.14,0.07-0.28,0.11-0.42C64.31,64.47,64.28,64.61,64.24,64.75z"/>
		<path class="st2" d="M152.87,44.23c-13.79,0-25,11.21-25,25v11.89l8,8V69.23c0-9.37,7.63-17,17-17c9.37,0,17,7.63,17,17v53.89
			l0.68,0.68c9.75,9.75,9.75,25.61,0,35.36c-0.22,0.22-0.45,0.43-0.68,0.65v26.33c0,9.37-7.63,17-17,17c-9.37,0-17-7.63-17-17
			v-26.33c-0.23-0.21-0.46-0.42-0.68-0.65l-7.32-7.32v34.3c0,13.79,11.21,25,25,25c13.79,0,25-11.21,25-25V69.23
			C177.87,55.44,166.65,44.23,152.87,44.23z"/>
		<path class="st1" d="M63.94,65.97c0.08-0.41,0.19-0.82,0.3-1.22C64.13,65.15,64.02,65.55,63.94,65.97z"/>
		<path class="st1" d="M66.52,59.74c0.02-0.04,0.05-0.07,0.08-0.11C66.58,59.67,66.55,59.7,66.52,59.74z"/>
		<path class="st1" d="M65.65,61.18c0.07-0.13,0.16-0.26,0.23-0.39C65.8,60.93,65.72,61.05,65.65,61.18z"/>
		<path class="st1" d="M64.92,62.72c0.09-0.22,0.2-0.44,0.31-0.66C65.12,62.28,65.01,62.5,64.92,62.72z"/>
		<path class="st1" d="M64.35,64.33c0.09-0.32,0.21-0.63,0.33-0.94C64.56,63.7,64.44,64.01,64.35,64.33z"/>
		<path class="st1" d="M62.05,85.95c0.28,0.32,0.58,0.64,0.89,0.95C62.63,86.59,62.34,86.27,62.05,85.95z"/>
		<path class="st3" d="M97.62,121.58v64.54c0,9.37-7.63,17-17,17s-17-7.63-17-17V87.58l0,0l-0.68-0.68c0,0,0,0,0,0
			c-0.31-0.31-0.6-0.63-0.89-0.95c-4.2-4.66-6.35-10.52-6.42-16.42c-0.01-0.2-0.02-0.3-0.02-0.3v116.9c0,13.79,11.21,25,25,25
			s25-11.21,25-25v-56.54v0L97.62,121.58z"/>
		<polygon class="st1" points="97.62,121.58 97.62,121.58 105.62,129.58 105.62,129.58 105.62,129.58 		"/>
		<polygon class="st1" points="63.62,87.58 63.62,87.58 63.62,87.58 62.94,86.9 62.94,86.9 62.94,86.9 		"/>
		<path class="st1" d="M170.54,123.79l-0.68-0.68l-34-34l-8-8L98.3,51.55c-0.1-0.1-0.2-0.18-0.3-0.27c-0.35-0.34-0.72-0.68-1.09-1
			c-0.22-0.19-0.45-0.38-0.68-0.56c-0.36-0.29-0.73-0.57-1.11-0.84c-0.26-0.19-0.52-0.37-0.79-0.54c-0.37-0.24-0.74-0.48-1.13-0.7
			c-0.28-0.17-0.57-0.32-0.86-0.48c-0.4-0.21-0.8-0.41-1.21-0.6c-0.27-0.13-0.55-0.25-0.83-0.36c-0.45-0.19-0.9-0.37-1.36-0.53
			c-0.23-0.08-0.47-0.16-0.71-0.23c-0.52-0.17-1.05-0.32-1.58-0.46c-0.17-0.04-0.34-0.08-0.51-0.12c-0.61-0.14-1.22-0.26-1.84-0.35
			c-0.09-0.01-0.18-0.02-0.28-0.03c-0.69-0.1-1.4-0.17-2.11-0.2c0,0-0.01,0-0.01,0c-0.43-0.02-0.85-0.03-1.28-0.03
			c-0.43,0-0.86,0.01-1.28,0.03c-0.01,0-0.02,0-0.03,0c-9.29,0.48-17.25,6.06-21.14,13.99c-0.04,0.07-0.07,0.15-0.11,0.22
			c-0.11,0.23-0.22,0.47-0.32,0.71c-0.07,0.16-0.14,0.32-0.21,0.48c-0.06,0.16-0.12,0.31-0.19,0.47c-0.1,0.25-0.19,0.5-0.28,0.75
			c-0.03,0.07-0.05,0.14-0.07,0.21c-0.93,2.72-1.38,5.58-1.35,8.43c0.07,5.89,2.22,11.76,6.42,16.42c0.29,0.32,0.58,0.65,0.89,0.95
			c0,0,0,0,0,0l0.68,0.68l34,34l8,8v0l22.25,22.25l7.32,7.32c0.22,0.22,0.45,0.43,0.68,0.65c4.64,4.31,10.64,6.68,17,6.68
			c6.36,0,12.36-2.37,17-6.68c0.23-0.21,0.46-0.42,0.68-0.65C180.29,149.4,180.29,133.54,170.54,123.79z M164.89,153.49
			c-3.21,3.21-7.48,4.98-12.02,4.98c-4.54,0-8.81-1.77-12.02-4.98l-4.98-4.98l-8-8l-22.25-22.25l-8-8L68.6,81.25
			c-3.46-3.46-5.11-8.06-4.95-12.61c0.01-0.23,0.02-0.47,0.04-0.7c0.02-0.2,0.04-0.4,0.06-0.6c0.05-0.42,0.1-0.85,0.18-1.26
			c0.01-0.04,0.01-0.07,0.02-0.11c0.08-0.41,0.19-0.82,0.3-1.22c0.04-0.14,0.07-0.28,0.11-0.42c0.1-0.32,0.21-0.63,0.33-0.94
			c0.08-0.22,0.15-0.45,0.24-0.66c0.09-0.22,0.2-0.44,0.31-0.66c0.14-0.3,0.27-0.59,0.42-0.88c0.07-0.13,0.15-0.26,0.23-0.39
			c0.2-0.36,0.41-0.71,0.64-1.06c0.03-0.04,0.05-0.07,0.08-0.11c0.58-0.85,1.24-1.67,2-2.42c2.76-2.76,6.31-4.45,10.14-4.87
			c0.05-0.01,0.1-0.02,0.16-0.02c0.57-0.06,1.15-0.09,1.73-0.09s1.16,0.03,1.73,0.09c0.05,0.01,0.11,0.02,0.16,0.02
			c3.83,0.42,7.37,2.11,10.13,4.87l12.98,12.98l22.25,22.25l8,8l29.02,29.02C171.52,136.08,171.52,146.86,164.89,153.49z"/>
		<g>
			<path class="st3" d="M80.62,57.13c-6.67,0-12.09,5.42-12.09,12.09s5.42,12.09,12.09,12.09c6.67,0,12.09-5.42,12.09-12.09
				S87.29,57.13,80.62,57.13z M80.62,73.32c-2.26,0-4.09-1.84-4.09-4.09s1.84-4.09,4.09-4.09c2.26,0,4.09,1.84,4.09,4.09
				S82.88,73.32,80.62,73.32z"/>
		</g>
		<g>
			<path class="st1" d="M152.87,129.38c-6.67,0-12.09,5.42-12.09,12.09s5.42,12.09,12.09,12.09s12.09-5.42,12.09-12.09
				S159.54,129.38,152.87,129.38z M152.87,145.56c-2.26,0-4.09-1.84-4.09-4.09s1.84-4.09,4.09-4.09s4.09,1.84,4.09,4.09
				S155.12,145.56,152.87,145.56z"/>
		</g>
		<path class="st3" d="M409.89,155.25l-6.78-10.96v12.56v8.14v21.14c0,9.37-7.63,17-17,17c-9.37,0-17-7.63-17-17v-26.34v-18.31
			v-18.31V87.53c-4.92-4.57-8-11.08-8-18.31v72.24v44.65c0,13.79,11.21,25,25,25c13.79,0,25-11.21,25-25v-22.92v-5.98L409.89,155.25
			z"/>
		<path class="st1" d="M403.11,94.23v19.07v3.81c1.95-3.02,4.58-5.67,7.84-7.69c0.05-0.03,0.11-0.06,0.16-0.09v-0.04V94.23H403.11z"
			/>
		<path class="st1" d="M452.39,128.92l-7.03-11.38c-3.51-5.68-9.02-9.65-15.52-11.19c-0.82-0.19-1.64-0.34-2.46-0.45
			c-5.65-0.76-11.34,0.43-16.27,3.43c-0.05,0.03-0.11,0.06-0.16,0.09c-3.26,2.01-5.89,4.66-7.84,7.69
			c-1.11,1.72-1.99,3.55-2.65,5.46c-2.34,6.84-1.72,14.64,2.37,21.26l0.28,0.46l6.78,10.96l1.22,1.98l3.14,5.08l22.84,36.95
			c4.59,7.43,12.55,11.86,21.29,11.86c4.63,0,9.17-1.29,13.12-3.74c5.68-3.51,9.65-9.02,11.19-15.52s0.45-13.21-3.07-18.89
			l-22.87-37L452.39,128.92z M474.9,190.03c-1.04,4.42-3.74,8.17-7.61,10.56c-2.69,1.66-5.77,2.54-8.92,2.54
			c-5.95,0-11.36-3.02-14.48-8.07l-21.91-35.45l-4.28-6.92l-6.6-10.68l-1.48-2.39c-3.96-6.4-3.13-14.43,1.48-19.9
			c1.13-1.34,2.48-2.53,4.05-3.5c2.72-1.68,5.79-2.55,8.91-2.55c1.31,0,2.63,0.15,3.94,0.46c4.42,1.04,8.17,3.75,10.56,7.61
			l8.05,13.03l4.28,6.92l21.94,35.49C475.21,181.05,475.95,185.61,474.9,190.03z"/>
		<g>
			<path class="st1" d="M411.11,163.21c1.05-0.28,2.1-0.58,3.14-0.89l-3.14-5.08V163.21z"/>
			<path class="st2" d="M458.36,44.23c-7.22,0-13.74,3.08-18.31,8c-4.15,4.46-6.69,10.44-6.69,17c0,5.99-1.13,11.72-3.18,17
				c-1.09,2.81-2.43,5.48-4.01,8c-3.81,6.09-8.97,11.25-15.06,15.06v0.04c4.93-3,10.62-4.18,16.27-3.43
				c3.13-3.52,5.81-7.44,7.97-11.67c1.31-2.56,2.42-5.23,3.32-8c1.74-5.36,2.69-11.07,2.69-17c0-9.37,7.63-17,17-17
				c9.37,0,17,7.63,17,17c0,6.95-0.8,13.71-2.31,20.21c-3.47,14.94-10.71,28.45-20.65,39.48l4.36,7.06
				c16.48-17.43,26.6-40.93,26.6-66.75C483.36,55.44,472.14,44.23,458.36,44.23z"/>
		</g>
		<path class="st1" d="M386.11,44.23c-13.79,0-25,11.21-25,25c0,7.22,3.08,13.74,8,18.31c4.46,4.15,10.44,6.69,17,6.69h17h8h15.06
			c1.58-2.52,2.92-5.19,4.01-8h-19.07h-8h-17c-9.37,0-17-7.63-17-17s7.63-17,17-17h18.31h35.63c4.57-4.92,11.08-8,18.31-8H386.11z"
			/>
		<g>
			<path class="st2" d="M386.11,129.38c-6.67,0-12.09,5.42-12.09,12.09s5.42,12.09,12.09,12.09c6.67,0,12.09-5.42,12.09-12.09
				S392.78,129.38,386.11,129.38z M386.11,145.56c-2.26,0-4.09-1.84-4.09-4.09s1.84-4.09,4.09-4.09s4.09,1.84,4.09,4.09
				S388.37,145.56,386.11,145.56z"/>
		</g>
		<g>
			<path class="st2" d="M386.11,57.13c-6.67,0-12.09,5.42-12.09,12.09c0,6.67,5.42,12.09,12.09,12.09c6.67,0,12.09-5.42,12.09-12.09
				C398.21,62.56,392.78,57.13,386.11,57.13z M386.11,73.32c-2.26,0-4.09-1.84-4.09-4.09s1.84-4.09,4.09-4.09s4.09,1.84,4.09,4.09
				S388.37,73.32,386.11,73.32z"/>
		</g>
		<g>
			<path class="st3" d="M458.16,57.13c-6.67,0-12.09,5.42-12.09,12.09c0,6.67,5.42,12.09,12.09,12.09s12.09-5.42,12.09-12.09
				C470.25,62.56,464.83,57.13,458.16,57.13z M458.16,73.32c-2.26,0-4.09-1.84-4.09-4.09s1.84-4.09,4.09-4.09s4.09,1.84,4.09,4.09
				S460.42,73.32,458.16,73.32z"/>
		</g>
		<g>
			<path class="st2" d="M424.15,118.68c-6.67,0-12.09,5.42-12.09,12.09c0,6.67,5.42,12.09,12.09,12.09
				c6.67,0,12.09-5.42,12.09-12.09C436.24,124.1,430.82,118.68,424.15,118.68z M424.15,134.86c-2.26,0-4.09-1.84-4.09-4.09
				c0-2.26,1.84-4.09,4.09-4.09s4.09,1.84,4.09,4.09C428.24,133.03,426.41,134.86,424.15,134.86z"/>
		</g>
		<path class="st3" d="M1074.75,135.98c-1.88,1.99-3.84,3.89-5.87,5.71l21.94,35.49c4.93,7.97,2.45,18.47-5.52,23.4
			c-2.69,1.66-5.77,2.54-8.92,2.54c-5.95,0-11.36-3.02-14.48-8.07l-21.91-35.45c-2.53,1.01-5.11,1.91-7.73,2.7l22.84,36.95
			c4.59,7.43,12.55,11.86,21.29,11.86c4.63,0,9.17-1.29,13.12-3.74c11.73-7.25,15.37-22.68,8.12-34.41L1074.75,135.98z"/>
		<path class="st2" d="M1029.1,94.23h-8v19.07c2.81-1.09,5.48-2.43,8-4.01V94.23z"/>
		<path class="st2" d="M987.1,123.16V87.53c-4.92-4.57-8-11.08-8-18.31v72.24C979.1,134.25,982.19,127.73,987.1,123.16z"/>
		<path class="st2" d="M1021.1,186.12c0,9.37-7.63,17-17,17c-9.37,0-17-7.63-17-17v-26.34c-4.92-4.57-8-11.08-8-18.31v44.65
			c0,13.79,11.21,25,25,25c13.79,0,25-11.21,25-25v-22.92c-2.63,0.7-5.29,1.29-8,1.77V186.12z"/>
		<path class="st2" d="M1091.04,89.44c-3.47,14.94-10.71,28.45-20.65,39.48c-1.84,2.04-3.77,3.99-5.79,5.85
			c-8.33,7.69-18.12,13.82-28.9,17.91c-2.16,0.82-4.36,1.56-6.6,2.21c-0.41,0.12-0.81,0.23-1.22,0.35
			c-2.23,0.62-4.49,1.15-6.78,1.59c-5.51,1.07-11.19,1.63-17,1.63c-9.37,0-17-7.63-17-17s7.63-17,17-17c4.96,0,9.76-0.67,14.34-1.9
			c0.9-0.24,1.79-0.51,2.66-0.79c2.77-0.9,5.44-2.01,8-3.32c6.18-3.15,11.69-7.42,16.26-12.55c3.14-3.52,5.82-7.45,7.98-11.69h-9.18
			c-3.81,6.09-8.97,11.25-15.06,15.06c-2.52,1.58-5.19,2.92-8,4.01c-5.28,2.04-11.01,3.18-17,3.18c-6.56,0-12.54,2.54-17,6.69
			c-4.92,4.57-8,11.08-8,18.31c0,7.22,3.08,13.74,8,18.31c4.46,4.15,10.44,6.69,17,6.69c5.8,0,11.48-0.51,17-1.49
			c2.71-0.48,5.37-1.07,8-1.77c1.05-0.28,2.1-0.58,3.14-0.89c2.63-0.8,5.21-1.7,7.73-2.7c10.69-4.26,20.45-10.36,28.9-17.92
			c2.04-1.82,4-3.73,5.87-5.71c16.48-17.43,26.6-40.93,26.6-66.75C1101.34,77.52,1097.28,84.89,1091.04,89.44z"/>
		<path class="st1" d="M1076.35,44.23h-72.24c-13.79,0-25,11.21-25,25c0,7.22,3.08,13.74,8,18.31c4.46,4.15,10.44,6.69,17,6.69h17h8
			h15.06h9.18h23c5.49,0,10.56-1.78,14.69-4.79c6.24-4.55,10.31-11.91,10.31-20.21C1101.34,55.44,1090.13,44.23,1076.35,44.23z
			 M1076.35,86.23h-19.69h-8.49h-19.07h-8h-17c-9.37,0-17-7.63-17-17s7.63-17,17-17h18.31h35.63h18.31c9.37,0,17,7.63,17,17
			S1085.72,86.23,1076.35,86.23z"/>
		<g>
			<path class="st1" d="M1004.1,129.38c-6.67,0-12.09,5.42-12.09,12.09s5.42,12.09,12.09,12.09s12.09-5.42,12.09-12.09
				S1010.77,129.38,1004.1,129.38z M1004.1,145.56c-2.26,0-4.09-1.84-4.09-4.09s1.84-4.09,4.09-4.09s4.09,1.84,4.09,4.09
				S1006.36,145.56,1004.1,145.56z"/>
		</g>
		<g>
			<path class="st3" d="M1004.1,57.13c-6.67,0-12.09,5.42-12.09,12.09c0,6.67,5.42,12.09,12.09,12.09s12.09-5.42,12.09-12.09
				C1016.19,62.56,1010.77,57.13,1004.1,57.13z M1004.1,73.32c-2.26,0-4.09-1.84-4.09-4.09s1.84-4.09,4.09-4.09s4.09,1.84,4.09,4.09
				S1006.36,73.32,1004.1,73.32z"/>
		</g>
		<g>
			<path class="st3" d="M1076.15,57.13c-6.67,0-12.09,5.42-12.09,12.09c0,6.67,5.42,12.09,12.09,12.09
				c6.67,0,12.09-5.42,12.09-12.09C1088.24,62.56,1082.82,57.13,1076.15,57.13z M1076.15,73.32c-2.26,0-4.09-1.84-4.09-4.09
				s1.84-4.09,4.09-4.09s4.09,1.84,4.09,4.09S1078.41,73.32,1076.15,73.32z"/>
		</g>
		<g>
			<path class="st1" d="M1042.14,118.68c-6.67,0-12.09,5.42-12.09,12.09c0,6.67,5.42,12.09,12.09,12.09
				c6.67,0,12.09-5.42,12.09-12.09C1054.23,124.1,1048.81,118.68,1042.14,118.68z M1042.14,134.86c-2.26,0-4.09-1.84-4.09-4.09
				c0-2.26,1.84-4.09,4.09-4.09s4.09,1.84,4.09,4.09C1046.23,133.03,1044.4,134.86,1042.14,134.86z"/>
		</g>
		<g>
			<path class="st1" d="M847.85,211.12c13.78,0,25-11.21,25-25v-19.65h-8v19.65c0,9.37-7.63,17-17,17s-17-7.63-17-17v-26.34
				c-4.92-4.57-8-11.08-8-18.31v44.65C822.86,199.91,834.07,211.12,847.85,211.12z"/>
			<path class="st1" d="M883.98,44.23c-33.7,0-61.12,27.42-61.12,61.12v36.12c0-7.22,3.08-13.74,8-18.31v-17.81
				c0-29.29,23.83-53.12,53.12-53.12c29.29,0,53.12,23.83,53.12,53.12v17.81v18.31v18.31v26.34c0,9.37-7.63,17-17,17s-17-7.63-17-17
				v-19.65v-8v-34v-8v-11.12c0-10.54-8.58-19.12-19.12-19.12c-10.54,0-19.12,8.58-19.12,19.12v11.12h8v-11.12
				c0-6.13,4.99-11.12,11.12-11.12s11.12,4.99,11.12,11.12v11.12v8v34v8v19.65c0,13.79,11.21,25,25,25c13.78,0,25-11.21,25-25
				v-44.65v-36.12C945.1,71.64,917.68,44.23,883.98,44.23z"/>
		</g>
		<path class="st2" d="M847.85,124.47h17h8h22.25v-8h-22.25h-8h-17c-6.56,0-12.54,2.54-17,6.69c-4.92,4.57-8,11.08-8,18.31
			c0,7.22,3.08,13.74,8,18.31c4.46,4.15,10.44,6.69,17,6.69h17h8h22.25v-8h-22.25h-8h-17c-9.37,0-17-7.63-17-17
			S838.48,124.47,847.85,124.47z"/>
		<g>
			<path class="st3" d="M847.85,129.38c-6.67,0-12.09,5.42-12.09,12.09s5.42,12.09,12.09,12.09s12.09-5.42,12.09-12.09
				S854.52,129.38,847.85,129.38z M847.85,145.56c-2.26,0-4.09-1.84-4.09-4.09s1.84-4.09,4.09-4.09s4.09,1.84,4.09,4.09
				S850.11,145.56,847.85,145.56z"/>
		</g>
		<g>
			<path class="st1" d="M920.1,129.38c-6.67,0-12.09,5.42-12.09,12.09s5.42,12.09,12.09,12.09c6.67,0,12.09-5.42,12.09-12.09
				S926.77,129.38,920.1,129.38z M920.1,145.56c-2.26,0-4.09-1.84-4.09-4.09s1.84-4.09,4.09-4.09s4.09,1.84,4.09,4.09
				S922.36,145.56,920.1,145.56z"/>
		</g>
		<g>
			<path class="st3" d="M1380.84,159.78v26.34c0,9.37-7.63,17-17,17s-17-7.63-17-17v-19.65h-8v19.65c0,13.79,11.21,25,25,25
				s25-11.21,25-25v-44.65C1388.84,148.7,1385.76,155.21,1380.84,159.78z"/>
			<path class="st3" d="M1338.84,116.47h8v-11.12c0-10.54-8.58-19.12-19.12-19.12s-19.12,8.58-19.12,19.12v11.12h8v-11.12
				c0-6.13,4.99-11.12,11.12-11.12c6.13,0,11.12,4.99,11.12,11.12V116.47z"/>
			<path class="st3" d="M1291.6,211.12c13.79,0,25-11.21,25-25v-19.65h-8v19.65c0,9.37-7.63,17-17,17s-17-7.63-17-17v-26.34
				c-4.92-4.57-8-11.08-8-18.31v44.65C1266.6,199.91,1277.81,211.12,1291.6,211.12z"/>
			<path class="st3" d="M1327.72,44.23c-33.7,0-61.12,27.42-61.12,61.12v36.12c0-7.22,3.08-13.74,8-18.31v-17.81
				c0-29.29,23.83-53.12,53.12-53.12s53.12,23.83,53.12,53.12v17.81c4.92,4.57,8,11.08,8,18.31v-36.12
				C1388.84,71.64,1361.42,44.23,1327.72,44.23z"/>
		</g>
		<path class="st2" d="M1380.84,123.16c-4.46-4.15-10.44-6.69-17-6.69h-17h-8h-1.65h-20.6h-8h-17c-6.56,0-12.54,2.54-17,6.69
			c-4.92,4.57-8,11.08-8,18.31c0,7.22,3.08,13.74,8,18.31c4.46,4.15,10.44,6.69,17,6.69h17h8h22.25h8h17c6.56,0,12.54-2.54,17-6.69
			c4.92-4.57,8-11.08,8-18.31C1388.84,134.25,1385.76,127.73,1380.84,123.16z M1363.84,158.47h-17h-8h-22.25h-8h-17
			c-9.37,0-17-7.63-17-17s7.63-17,17-17h17h8h20.6h1.65h8h17c9.37,0,17,7.63,17,17S1373.22,158.47,1363.84,158.47z"/>
		<g>
			<path class="st1" d="M1291.6,129.38c-6.67,0-12.09,5.42-12.09,12.09s5.42,12.09,12.09,12.09c6.67,0,12.09-5.42,12.09-12.09
				S1298.27,129.38,1291.6,129.38z M1291.6,145.56c-2.26,0-4.09-1.84-4.09-4.09s1.84-4.09,4.09-4.09c2.26,0,4.09,1.84,4.09,4.09
				S1293.85,145.56,1291.6,145.56z"/>
		</g>
		<path class="st1" d="M1134.35,167.81V69.23c0-9.37,7.63-17,17-17s17,7.63,17,17v91.9h8v-91.9c0-13.79-11.21-25-25-25
			s-25,11.21-25,25v116.9C1126.35,178.9,1129.43,172.38,1134.35,167.81z"/>
		<path class="st3" d="M1223.6,161.12h-47.25h-8h-17c-6.56,0-12.54,2.54-17,6.69c-4.92,4.57-8,11.08-8,18.31c0,13.79,11.21,25,25,25
			h72.25c13.79,0,25-11.21,25-25S1237.38,161.12,1223.6,161.12z M1223.6,203.12h-53.94h-18.31c-9.37,0-17-7.63-17-17s7.63-17,17-17
			h17h8h47.25c9.37,0,17,7.63,17,17S1232.97,203.12,1223.6,203.12z"/>
		<g>
			<path class="st2" d="M1151.35,174.03c-6.67,0-12.09,5.42-12.09,12.09c0,6.67,5.42,12.09,12.09,12.09
				c6.67,0,12.09-5.42,12.09-12.09C1163.44,179.45,1158.02,174.03,1151.35,174.03z M1151.35,190.22c-2.26,0-4.09-1.84-4.09-4.09
				c0-2.26,1.84-4.09,4.09-4.09s4.09,1.84,4.09,4.09C1155.44,188.38,1153.61,190.22,1151.35,190.22z"/>
		</g>
		<path class="st3" d="M309.11,161.12h-47.25v8h47.25c9.37,0,17,7.63,17,17s-7.63,17-17,17h-53.94c-4.57,4.92-11.08,8-18.31,8h72.25
			c13.79,0,25-11.21,25-25S322.9,161.12,309.11,161.12z"/>
		<path class="st3" d="M298.52,111.23c0,9.37-7.63,17-17,17h-19.65v8h19.65c13.79,0,25-11.21,25-25c0-6.56-2.54-12.54-6.69-17
			h-18.31C290.89,94.23,298.52,101.85,298.52,111.23z"/>
		<path class="st2" d="M253.87,94.23v34v8v24.9v8v17c0,9.37-7.63,17-17,17c-9.37,0-17-7.63-17-17v-18.31v-38.28v-18.31V92.92v-5.38
			c-4.92-4.57-8-11.08-8-18.31v42v74.9c0,13.79,11.21,25,25,25c7.22,0,13.74-3.08,18.31-8c4.15-4.46,6.69-10.44,6.69-17v-17v-8
			v-24.9v-8v-34H253.87z"/>
		<path class="st1" d="M309.11,44.23h-72.25c-13.79,0-25,11.21-25,25c0,7.22,3.08,13.74,8,18.31c1.07,0.99,2.23,1.9,3.46,2.69
			c3.9,2.53,8.55,4,13.54,4h17h8h19.65h18.31h9.29c13.79,0,25-11.21,25-25S322.9,44.23,309.11,44.23z M309.11,86.23h-27.6h-19.65h-8
			h-17c-9.37,0-17-7.63-17-17s7.63-17,17-17h18.31h53.94c9.37,0,17,7.63,17,17S318.49,86.23,309.11,86.23z"/>
		<g>
			<path class="st1" d="M236.87,99.13c-6.67,0-12.09,5.42-12.09,12.09c0,6.67,5.42,12.09,12.09,12.09s12.09-5.42,12.09-12.09
				C248.96,104.56,243.54,99.13,236.87,99.13z M236.87,115.32c-2.26,0-4.09-1.84-4.09-4.09s1.84-4.09,4.09-4.09
				c2.26,0,4.09,1.84,4.09,4.09S239.12,115.32,236.87,115.32z"/>
		</g>
		<g>
			<path class="st2" d="M236.87,57.13c-6.67,0-12.09,5.42-12.09,12.09s5.42,12.09,12.09,12.09s12.09-5.42,12.09-12.09
				S243.54,57.13,236.87,57.13z M236.87,73.32c-2.26,0-4.09-1.84-4.09-4.09s1.84-4.09,4.09-4.09c2.26,0,4.09,1.84,4.09,4.09
				S239.12,73.32,236.87,73.32z"/>
		</g>
		<g>
			<path class="st1" d="M236.87,174.03c-6.67,0-12.09,5.42-12.09,12.09s5.42,12.09,12.09,12.09s12.09-5.42,12.09-12.09
				S243.54,174.03,236.87,174.03z M236.87,190.22c-2.26,0-4.09-1.84-4.09-4.09c0-2.26,1.84-4.09,4.09-4.09
				c2.26,0,4.09,1.84,4.09,4.09C240.96,188.38,239.12,190.22,236.87,190.22z"/>
		</g>
		<path class="st1" d="M716.92,52.23h53.94c9.37,0,17,7.63,17,17s-7.63,17-17,17h-27.6c7.22,0,13.74,3.08,18.31,8h9.29
			c13.78,0,25-11.21,25-25s-11.21-25-25-25h-72.25C705.83,44.23,712.35,47.31,716.92,52.23z"/>
		<g>
			<path class="st3" d="M716.92,52.23c-4.57-4.92-11.08-8-18.31-8c-13.78,0-25,11.21-25,25v42c0-7.22,3.08-13.74,8-18.31v-5.38
				V69.23c0-9.37,7.63-17,17-17c9.37,0,17,7.63,17,17v17h8v-17C723.61,62.67,721.06,56.69,716.92,52.23z"/>
			<path class="st3" d="M681.61,167.81v-38.28c-4.92-4.57-8-11.08-8-18.31v74.9C673.61,178.9,676.69,172.38,681.61,167.81z"/>
			<rect x="715.61" y="136.23" class="st3" width="8" height="24.9"/>
		</g>
		<path class="st2" d="M770.86,161.12h-47.25h-8h-17c-6.56,0-12.54,2.54-17,6.69c-4.92,4.57-8,11.08-8,18.31c0,13.79,11.21,25,25,25
			h72.25c13.78,0,25-11.21,25-25S784.64,161.12,770.86,161.12z M770.86,203.12h-53.94h-18.31c-9.37,0-17-7.63-17-17s7.63-17,17-17
			h17h8h47.25c9.37,0,17,7.63,17,17S780.23,203.12,770.86,203.12z"/>
		<path class="st2" d="M761.57,94.23c-4.57-4.92-11.08-8-18.31-8h-19.65h-8h-17c-4.99,0-9.63,1.47-13.54,4
			c-1.23,0.8-2.39,1.7-3.46,2.69c-4.92,4.57-8,11.08-8,18.31c0,7.22,3.08,13.74,8,18.31c4.46,4.15,10.44,6.69,17,6.69h17h8h19.65
			c13.78,0,25-11.21,25-25C768.26,104.66,765.71,98.69,761.57,94.23z M743.26,128.23h-19.65h-8h-17c-9.37,0-17-7.63-17-17
			s7.63-17,17-17h17h8h19.65c9.37,0,17,7.63,17,17S752.63,128.23,743.26,128.23z"/>
		<g>
			<path class="st3" d="M698.61,99.13c-6.67,0-12.09,5.42-12.09,12.09c0,6.67,5.42,12.09,12.09,12.09c6.67,0,12.09-5.42,12.09-12.09
				C710.7,104.56,705.28,99.13,698.61,99.13z M698.61,115.32c-2.26,0-4.09-1.84-4.09-4.09s1.84-4.09,4.09-4.09
				c2.26,0,4.09,1.84,4.09,4.09S700.87,115.32,698.61,115.32z"/>
		</g>
		<g>
			<path class="st1" d="M698.61,57.13c-6.67,0-12.09,5.42-12.09,12.09s5.42,12.09,12.09,12.09c6.67,0,12.09-5.42,12.09-12.09
				S705.28,57.13,698.61,57.13z M698.61,73.32c-2.26,0-4.09-1.84-4.09-4.09s1.84-4.09,4.09-4.09c2.26,0,4.09,1.84,4.09,4.09
				S700.87,73.32,698.61,73.32z"/>
		</g>
		<g>
			<path class="st1" d="M698.61,174.03c-6.67,0-12.09,5.42-12.09,12.09s5.42,12.09,12.09,12.09c6.67,0,12.09-5.42,12.09-12.09
				S705.28,174.03,698.61,174.03z M698.61,190.22c-2.26,0-4.09-1.84-4.09-4.09c0-2.26,1.84-4.09,4.09-4.09
				c2.26,0,4.09,1.84,4.09,4.09C702.7,188.38,700.87,190.22,698.61,190.22z"/>
		</g>
		<g>
			<path class="st2" d="M542.36,57.13c-6.67,0-12.09,5.42-12.09,12.09c0,6.67,5.42,12.09,12.09,12.09c6.67,0,12.09-5.42,12.09-12.09
				C554.46,62.56,549.03,57.13,542.36,57.13z M542.36,73.32c-2.26,0-4.09-1.84-4.09-4.09s1.84-4.09,4.09-4.09
				c2.26,0,4.09,1.84,4.09,4.09S544.62,73.32,542.36,73.32z"/>
		</g>
		<g>
			<path class="st3" d="M542.36,174.03c-6.67,0-12.09,5.42-12.09,12.09s5.42,12.09,12.09,12.09c6.67,0,12.09-5.42,12.09-12.09
				S549.03,174.03,542.36,174.03z M542.36,190.22c-2.26,0-4.09-1.84-4.09-4.09c0-2.26,1.84-4.09,4.09-4.09
				c2.26,0,4.09,1.84,4.09,4.09C546.46,188.38,544.62,190.22,542.36,190.22z"/>
		</g>
		<path class="st2" d="M631.61,144.66V150c0,29.29-23.83,53.12-53.12,53.12h-17.82h-18.31c-9.37,0-17-7.63-17-17s7.63-17,17-17h17h8
			h11.12c10.54,0,19.12-8.58,19.12-19.12v-5.34c-4.92-4.57-8-11.08-8-18.31V150c0,6.13-4.99,11.12-11.12,11.12h-11.12h-8h-17
			c-6.56,0-12.54,2.54-17,6.69c-4.92,4.57-8,11.08-8,18.31c0,13.79,11.21,25,25,25h36.12c33.7,0,61.12-27.42,61.12-61.12v-23.65
			C639.61,133.57,636.53,140.09,631.61,144.66z"/>
		<path class="st1" d="M560.67,52.23c-4.57-4.92-11.08-8-18.31-8c-13.78,0-25,11.21-25,25v116.9c0-7.22,3.08-13.74,8-18.31V87.53
			V69.22c0-9.37,7.63-17,17-17c9.37,0,17,7.63,17,17v17v8v66.9h8v-66.9v-8v-17C567.36,62.66,564.82,56.69,560.67,52.23z"/>
		<g>
			<path class="st1" d="M614.61,114.25c-6.67,0-12.09,5.42-12.09,12.09c0,6.67,5.42,12.09,12.09,12.09
				c6.67,0,12.09-5.42,12.09-12.09C626.7,119.68,621.28,114.25,614.61,114.25z M614.61,130.44c-2.26,0-4.09-1.84-4.09-4.09
				c0-2.26,1.84-4.09,4.09-4.09c2.26,0,4.09,1.84,4.09,4.09C618.7,128.6,616.87,130.44,614.61,130.44z"/>
		</g>
		<path class="st3" d="M631.61,105.35v2.69v18.31c0,9.37-7.63,17-17,17c-9.37,0-17-7.63-17-17v-18.31v-2.69
			c0-10.54-8.58-19.12-19.12-19.12h-11.12v8h11.12c6.13,0,11.12,4.99,11.12,11.12v21c0,7.22,3.08,13.74,8,18.31
			c4.46,4.15,10.44,6.69,17,6.69c6.56,0,12.54-2.54,17-6.69c4.92-4.57,8-11.08,8-18.31v-21c0-33.7-27.42-61.12-61.12-61.12h-36.12
			c7.22,0,13.74,3.08,18.31,8h17.82C607.78,52.23,631.61,76.06,631.61,105.35L631.61,105.35z"/>
		<g>
			<path class="st1" d="M1363.84,129.38c-6.67,0-12.09,5.42-12.09,12.09s5.42,12.09,12.09,12.09c6.67,0,12.09-5.42,12.09-12.09
				S1370.51,129.38,1363.84,129.38z M1363.84,145.56c-2.26,0-4.09-1.84-4.09-4.09s1.84-4.09,4.09-4.09c2.26,0,4.09,1.84,4.09,4.09
				S1366.1,145.56,1363.84,145.56z"/>
		</g>
	</g>
</g>
</svg>
