<svg version="1" xmlns="http://www.w3.org/2000/svg" width="202.667" height="202.667" viewBox="0 0 152.000000 152.000000"><path d="M75 1c-6.7 1.8-14.9 9-17.5 15.4-2.2 5.2-2.5 6.9-2.9 14.6-.3 7.5 1.4 15.3 7.3 32 3.8 10.8 6.4 21.2 7.6 29.8.3 2 .7 5.3.9 7.2.3 1.9.7 6.9 1 11l.6 7.5-3.4-11.5c-5-16.7-10.6-29.6-18.8-43.8-5.4-9.2-7.3-11.1-3-3 3.1 5.9 8.7 22.2 9.6 28.2.4 2.1.8 4.2 1.1 4.6.3.4.7 2.9 1 5.5.3 2.6 1 6.8 1.5 9.4l.8 4.6-2.3-2.7c-4-4.7-9.4-6.6-17.2-6-1.3.1-2.3.6-2.3 1.1 0 .5.9.7 2 .4 5.5-1.5 11.6 3.5 14.5 11.9 1.2 3.7 1.9 9 2.1 17.8.4 14.5.9 15.5 8.3 14.6 2.6-.3 5.4 0 7 .8 2.9 1.4 5.5 1.4 9-.1 1.4-.5 3.6-.8 5-.6 10.3 1.4 9.8 1.9 9.9-10.5 0-17.7 5.1-33.8 13.9-44.2 3.7-4.3 3.7-4.4.8-2.6-3.6 2.4-5.2 3.9-9.7 9.6-3.9 4.9-8.8 13.7-8.8 15.7 0 .7-.4 1.3-.8 1.3-1.1 0 .5-13.3 2.8-24.3 1.9-8.4 3.4-12.9 6.8-19.2 1.5-2.8 1.5-2.9-.1-1.7-2.2 1.9-7.8 12.2-11.1 20.4-3.4 8.6-6.4 19.9-6.5 24.7-.1 1.3-.3 2.2-.6 2-.4-.5-2-10.3-3-18.4-.2-1.7-.9-5.5-1.5-8.5s-1.4-6.6-1.6-8c-1.3-6.4-7.8-26.7-11.4-35.5-8.2-20-4.4-36.8 9.8-43.1 4.3-1.9 11.8-1.5 14.7.8 7.7 6 6.5 21.3-2.3 28.1-4.6 3.6-7.4 4.2-10.8 2.5-5.8-2.8-8.6-10.4-5.8-15.9 2.9-5.7 11.9-8.4 15.6-4.7 2.8 2.8 1.9 8.5-1.9 11.5-3.7 3-6.8 2.9-9.8-.3-1.8-1.9-2.3-2.1-2.1-.8.4 2.4 4.4 5.4 7.3 5.4 5.1 0 9.7-4 11.3-9.9 2.9-10.5-10.7-16.9-19.1-8.9-6.7 6.5-8.8 16.7-4.6 22.9 4.9 7.5 14 8.6 22.9 3 5-3.2 9.6-10.9 10.5-17.9.7-4.9-1.9-13.8-4.9-17.3C92.4 1 83-1.1 75 1z"/></svg>