<svg enable-background="new 0 0 1000 1000" viewBox="0 0 1000 1000" xmlns="http://www.w3.org/2000/svg"><path d="m418.3 91.7h-81.7v-81.7h81.7zm-326.6 490h-81.7v81.7h81.7zm0-122.5h-81.7v81.7h81.7zm0-122.5h-81.7v81.7h81.7zm0-204.2c0-22.5 18.3-40.8 40.8-40.8h163.3v-81.7h-163.3c-67.7 0-122.5 54.9-122.5 122.5v163.3h81.7zm449.1-122.5h-81.7v81.7h81.7zm122.5 0h-81.7v81.7h81.7zm-135.9 474.1c0-13.3-8.7-16.2-22-16.2h-19v32.4h19c13.3-.1 22-2.9 22-16.2zm-354.1-310.8h653.3v653.3h-653.3zm410.1 351c0 38.6 22.4 57.3 60.7 57.3 37.4 0 60.9-18.7 60.9-57.3v-86.9h-37v86.9c0 19.5-6.6 25.2-23.8 25.2-18.1 0-23.8-8.6-23.8-25.2v-86.9h-36.9v86.9zm-134.1 54.4h37v-47.9h27c32.2 0 50-19.4 50-46.7 0-27.8-18.3-46.7-50-46.7h-64.1v141.3zm-152.6-70.1c0 41.2 26.4 73.1 69.5 73.1 33.7 0 59.1-19.5 62.9-62.1h-36c-6 44.8-59.4 39.3-59.4-10.9 0-23 9.3-42.1 32.5-42.1 12.5 0 23.5 7.6 25.8 23.4h36c-3.7-37.6-29.8-55.7-61.8-55.7-42.9-.1-69.5 32.1-69.5 74.3zm611.6 32.2h81.7v-81.7h-81.7zm-816.6 326.7v-163.3h-81.7v163.3c0 67.6 54.8 122.5 122.5 122.5h163.3v-81.7h-163.3c-22.5 0-40.8-18.3-40.8-40.8zm816.6 0c0 22.5-18.3 40.8-40.8 40.8h-163.3v81.7h163.3c67.7 0 122.5-54.9 122.5-122.5v-163.3h-81.7zm0-204.2h81.7v-81.7h-81.7zm0-245h81.7v-81.7h-81.7zm-40.8-408.3h-163.3v81.7h163.3c22.5 0 40.8 18.3 40.8 40.8v163.3h81.7v-163.3c0-67.6-54.8-122.5-122.5-122.5zm-530.8 980h81.7v-81.7h-81.7zm245 0h81.7v-81.7h-81.7zm-122.5 0h81.7v-81.7h-81.7z"/></svg>