<svg version="1.1" id="Layer_1" xmlns="http://www.w3.org/2000/svg" x="0" y="0" viewBox="0 0 1435.51 255.35" xml:space="preserve"><style>.st1{fill:#652d90}.st2{fill:#ec313c}.st3{fill:#3a8182}</style><path d="M1328.72 21.22c-45.23 0-84.08 34.4-84.08 79.27 0 12.19-9.92 23.11-22.11 23.11s-22.18-9.92-22.18-22.11V69.23c0-26.47-21.53-48-48-48-15.45 0-29.22 7.35-38 18.73-8.79-11.38-22.55-18.73-38-18.73h-72.24c-24.31 0-44.44 18.17-47.56 41.63-14.63-24.88-41.67-41.63-72.56-41.63-27.49 0-51.94 13.25-67.3 33.71-6.1-19.51-24.33-33.71-45.83-33.71h-72.25c-24.31 0-44.44 18.17-47.56 41.63-14.63-24.88-41.67-41.63-72.56-41.63h-36.12c-18.06 0-33.81 10.03-42 24.8-8.19-14.77-23.95-24.8-42-24.8h-72.24c-15.74 0-29.74 7.62-38.5 19.37-8.76-11.75-22.76-19.37-38.5-19.37h-72.25c-18.05 0-33.81 10.02-42 24.79-8.19-14.77-23.95-24.79-42-24.79-14.34 0-27.23 6.32-36.04 16.33l-2.27-2.27c-.29-.29-.59-.58-.9-.86-.57-.54-1.15-1.07-1.73-1.57-.43-.37-.87-.73-1.3-1.08-.7-.56-1.42-1.11-2.1-1.59a47.148 47.148 0 00-5.34-3.32 47.551 47.551 0 00-3.91-1.86c-.9-.38-1.77-.72-2.68-1.04-.45-.16-.89-.3-1.33-.44-1.06-.34-2.06-.63-3.11-.89-.3-.07-.61-.14-.92-.21-1.23-.28-2.39-.5-3.54-.67-.04-.01-.07-.01-.11-.02-.2-.03-.39-.05-.6-.08a50.18 50.18 0 00-3.74-.36c-.06 0-.11-.01-.17-.01-1.63-.08-3.38-.08-4.82 0-.08 0-.17.01-.25.01-17.28.94-32.76 11.17-40.43 26.73a57.994 57.994 0 00-.92 1.99c-.13.29-.25.58-.36.83-.12.28-.23.57-.38.94-.19.48-.37.96-.56 1.51l-.12.35c-1.59 4.66-2.46 9.5-2.57 14.41-.02.38-.03.77-.03 1.16v116.9c0 26.47 21.53 48 48 48 14.39 0 27.32-6.36 36.12-16.42 8.81 10.06 21.74 16.42 36.12 16.42 18.05 0 33.81-10.02 42-24.79 8.19 14.77 23.95 24.79 42 24.79h72.25c15.74 0 29.74-7.62 38.5-19.37 8.76 11.75 22.76 19.37 38.5 19.37 14.38 0 27.3-6.35 36.1-16.4 9.03 10.39 22.07 16.4 36.17 16.4 8.91 0 17.63-2.48 25.21-7.17 7.13-4.41 12.84-10.46 16.78-17.6 8.2 14.76 23.94 24.77 41.99 24.77h36.12c30.89 0 57.93-16.75 72.56-41.63 3.13 23.47 23.26 41.63 47.56 41.63h72.25c15.74 0 29.74-7.62 38.5-19.37 8.76 11.75 22.76 19.37 38.5 19.37 14.39 0 27.32-6.36 36.12-16.42 8.81 10.06 21.73 16.42 36.12 16.42 18.05 0 33.81-10.02 42-24.79 8.19 14.77 23.95 24.79 42 24.79 14.38 0 27.3-6.35 36.1-16.4 9.03 10.39 22.07 16.4 36.17 16.4 3.72 0 10.98-.05 10.98-.05.66.03 1.33.05 2 .05 9.16 0 17.71-2.59 25-7.06a47.69 47.69 0 0023 7.01s9.76.05 15 .05h72.25c13.27 0 25.3-5.42 34-14.15 8.7 8.74 20.73 14.15 34 14.15 14.39 0 27.32-6.36 36.12-16.42 8.81 10.06 21.74 16.42 36.12 16.42 26.47 0 48-21.53 48-48v-80.77c-.02-46.39-37.75-84.13-84.14-84.13z" fill="#fff"/><path class="st1" d="M65.22 62.06c.14-.3.27-.59.42-.88-.15.29-.28.59-.42.88zM65.88 60.8c.21-.36.41-.72.64-1.06-.23.34-.44.7-.64 1.06zM64.68 63.39c.08-.22.15-.45.24-.66-.09.21-.16.44-.24.66zM63.93 66.07c.01-.04.01-.07.02-.11-.02.04-.02.08-.02.11zM64.24 64.75c.04-.14.07-.28.11-.42-.04.14-.07.28-.11.42z"/><path class="st2" d="M152.87 44.23c-13.79 0-25 11.21-25 25v11.89l8 8V69.23c0-9.37 7.63-17 17-17 9.37 0 17 7.63 17 17v53.89l.68.68c9.75 9.75 9.75 25.61 0 35.36-.22.22-.45.43-.68.65v26.33c0 9.37-7.63 17-17 17-9.37 0-17-7.63-17-17v-26.33c-.23-.21-.46-.42-.68-.65l-7.32-7.32v34.3c0 13.79 11.21 25 25 25s25-11.21 25-25V69.23c0-13.79-11.22-25-25-25z"/><path class="st1" d="M63.94 65.97c.08-.41.19-.82.3-1.22-.11.4-.22.8-.3 1.22zM66.52 59.74c.02-.04.05-.07.08-.11-.02.04-.05.07-.08.11zM65.65 61.18c.07-.13.16-.26.23-.39-.08.14-.16.26-.23.39zM64.92 62.72c.09-.22.2-.44.31-.66-.11.22-.22.44-.31.66zM64.35 64.33c.09-.32.21-.63.33-.94-.12.31-.24.62-.33.94zM62.05 85.95c.28.32.58.64.89.95-.31-.31-.6-.63-.89-.95z"/><path class="st3" d="M97.62 121.58v64.54c0 9.37-7.63 17-17 17s-17-7.63-17-17V87.58l-.68-.68c-.31-.31-.6-.63-.89-.95a24.908 24.908 0 01-6.42-16.42c-.01-.2-.02-.3-.02-.3v116.9c0 13.79 11.21 25 25 25s25-11.21 25-25v-56.54l-7.99-8.01z"/><path class="st1" d="M97.62 121.58l8 8zM63.62 87.58l-.68-.68zM170.54 123.79l-.68-.68-34-34-8-8L98.3 51.55c-.1-.1-.2-.18-.3-.27-.35-.34-.72-.68-1.09-1-.22-.19-.45-.38-.68-.56-.36-.29-.73-.57-1.11-.84-.26-.19-.52-.37-.79-.54-.37-.24-.74-.48-1.13-.7-.28-.17-.57-.32-.86-.48-.4-.21-.8-.41-1.21-.6-.27-.13-.55-.25-.83-.36-.45-.19-.9-.37-1.36-.53-.23-.08-.47-.16-.71-.23-.52-.17-1.05-.32-1.58-.46l-.51-.12c-.61-.14-1.22-.26-1.84-.35l-.28-.03c-.69-.1-1.4-.17-2.11-.2h-.01a27.333 27.333 0 00-2.56 0h-.03c-9.29.48-17.25 6.06-21.14 13.99-.04.07-.07.15-.11.22-.11.23-.22.47-.32.71l-.21.48c-.06.16-.12.31-.19.47-.1.25-.19.5-.28.75-.03.07-.05.14-.07.21-.93 2.72-1.38 5.58-1.35 8.43.07 5.89 2.22 11.76 6.42 16.42.29.32.58.65.89.95l.68.68 34 34 8 8 22.25 22.25 7.32 7.32c.22.22.45.43.68.65a24.835 24.835 0 0017 6.68c6.36 0 12.36-2.37 17-6.68.23-.21.46-.42.68-.65 9.73-9.76 9.73-25.62-.02-35.37zm-5.65 29.7a16.891 16.891 0 01-12.02 4.98c-4.54 0-8.81-1.77-12.02-4.98l-4.98-4.98-8-8-22.25-22.25-8-8L68.6 81.25c-3.46-3.46-5.11-8.06-4.95-12.61.01-.23.02-.47.04-.7l.06-.6c.05-.42.1-.85.18-1.26.01-.04.01-.07.02-.11.08-.41.19-.82.3-1.22.04-.14.07-.28.11-.42.1-.32.21-.63.33-.94.08-.22.15-.45.24-.66.09-.22.2-.44.31-.66.14-.3.27-.59.42-.88.07-.13.15-.26.23-.39.2-.36.41-.71.64-1.06l.08-.11c.58-.85 1.24-1.67 2-2.42 2.76-2.76 6.31-4.45 10.14-4.87.05-.01.1-.02.16-.02a16.562 16.562 0 013.46 0c.05.01.11.02.16.02 3.83.42 7.37 2.11 10.13 4.87l12.98 12.98 22.25 22.25 8 8 29.02 29.02c6.61 6.62 6.61 17.4-.02 24.03z"/><path class="st3" d="M80.62 57.13c-6.67 0-12.09 5.42-12.09 12.09s5.42 12.09 12.09 12.09 12.09-5.42 12.09-12.09-5.42-12.09-12.09-12.09zm0 16.19c-2.26 0-4.09-1.84-4.09-4.09s1.84-4.09 4.09-4.09c2.26 0 4.09 1.84 4.09 4.09s-1.83 4.09-4.09 4.09z"/><path class="st1" d="M152.87 129.38c-6.67 0-12.09 5.42-12.09 12.09s5.42 12.09 12.09 12.09 12.09-5.42 12.09-12.09-5.42-12.09-12.09-12.09zm0 16.18c-2.26 0-4.09-1.84-4.09-4.09s1.84-4.09 4.09-4.09 4.09 1.84 4.09 4.09-1.84 4.09-4.09 4.09z"/><path class="st3" d="M409.89 155.25l-6.78-10.96v41.84c0 9.37-7.63 17-17 17-9.37 0-17-7.63-17-17v-98.6c-4.92-4.57-8-11.08-8-18.31V186.11c0 13.79 11.21 25 25 25s25-11.21 25-25V157.21l-1.22-1.96z"/><path class="st1" d="M403.11 94.23v22.88c1.95-3.02 4.58-5.67 7.84-7.69.05-.03.11-.06.16-.09v-15.1h-8z"/><path class="st1" d="M452.39 128.92l-7.03-11.38c-3.51-5.68-9.02-9.65-15.52-11.19-.82-.19-1.64-.34-2.46-.45-5.65-.76-11.34.43-16.27 3.43-.05.03-.11.06-.16.09a24.734 24.734 0 00-7.84 7.69 25.262 25.262 0 00-2.65 5.46c-2.34 6.84-1.72 14.64 2.37 21.26l.28.46 6.78 10.96 1.22 1.98 3.14 5.08 22.84 36.95c4.59 7.43 12.55 11.86 21.29 11.86 4.63 0 9.17-1.29 13.12-3.74 5.68-3.51 9.65-9.02 11.19-15.52s.45-13.21-3.07-18.89l-22.87-37-4.36-7.05zm22.51 61.11a16.869 16.869 0 01-7.61 10.56 16.969 16.969 0 01-8.92 2.54c-5.95 0-11.36-3.02-14.48-8.07l-21.91-35.45-4.28-6.92-6.6-10.68-1.48-2.39c-3.96-6.4-3.13-14.43 1.48-19.9a16.93 16.93 0 014.05-3.5 16.918 16.918 0 0112.85-2.09c4.42 1.04 8.17 3.75 10.56 7.61l8.05 13.03 4.28 6.92 21.94 35.49c2.38 3.87 3.12 8.43 2.07 12.85zM411.11 163.21c1.05-.28 2.1-.58 3.14-.89l-3.14-5.08v5.97z"/><path class="st2" d="M458.36 44.23c-7.22 0-13.74 3.08-18.31 8a24.886 24.886 0 00-6.69 17c0 5.99-1.13 11.72-3.18 17a47.101 47.101 0 01-4.01 8 47.498 47.498 0 01-15.06 15.06v.04c4.93-3 10.62-4.18 16.27-3.43 3.13-3.52 5.81-7.44 7.97-11.67 1.31-2.56 2.42-5.23 3.32-8a54.955 54.955 0 002.69-17c0-9.37 7.63-17 17-17 9.37 0 17 7.63 17 17 0 6.95-.8 13.71-2.31 20.21-3.47 14.94-10.71 28.45-20.65 39.48l4.36 7.06c16.48-17.43 26.6-40.93 26.6-66.75 0-13.79-11.22-25-25-25z"/><path class="st1" d="M386.11 44.23c-13.79 0-25 11.21-25 25 0 7.22 3.08 13.74 8 18.31a24.886 24.886 0 0017 6.69h40.06c1.58-2.52 2.92-5.19 4.01-8h-44.07c-9.37 0-17-7.63-17-17s7.63-17 17-17h53.94c4.57-4.92 11.08-8 18.31-8h-72.25z"/><path class="st2" d="M386.11 129.38c-6.67 0-12.09 5.42-12.09 12.09s5.42 12.09 12.09 12.09 12.09-5.42 12.09-12.09-5.42-12.09-12.09-12.09zm0 16.18c-2.26 0-4.09-1.84-4.09-4.09s1.84-4.09 4.09-4.09 4.09 1.84 4.09 4.09-1.83 4.09-4.09 4.09zM386.11 57.13c-6.67 0-12.09 5.42-12.09 12.09s5.42 12.09 12.09 12.09 12.09-5.42 12.09-12.09c.01-6.66-5.42-12.09-12.09-12.09zm0 16.19c-2.26 0-4.09-1.84-4.09-4.09s1.84-4.09 4.09-4.09 4.09 1.84 4.09 4.09-1.83 4.09-4.09 4.09z"/><path class="st3" d="M458.16 57.13c-6.67 0-12.09 5.42-12.09 12.09s5.42 12.09 12.09 12.09 12.09-5.42 12.09-12.09c0-6.66-5.42-12.09-12.09-12.09zm0 16.19c-2.26 0-4.09-1.84-4.09-4.09s1.84-4.09 4.09-4.09 4.09 1.84 4.09 4.09-1.83 4.09-4.09 4.09z"/><path class="st2" d="M424.15 118.68c-6.67 0-12.09 5.42-12.09 12.09s5.42 12.09 12.09 12.09 12.09-5.42 12.09-12.09-5.42-12.09-12.09-12.09zm0 16.18c-2.26 0-4.09-1.84-4.09-4.09 0-2.26 1.84-4.09 4.09-4.09s4.09 1.84 4.09 4.09c0 2.26-1.83 4.09-4.09 4.09z"/><path class="st3" d="M1074.75 135.98a98.757 98.757 0 01-5.87 5.71l21.94 35.49c4.93 7.97 2.45 18.47-5.52 23.4a16.969 16.969 0 01-8.92 2.54c-5.95 0-11.36-3.02-14.48-8.07l-21.91-35.45a94.19 94.19 0 01-7.73 2.7l22.84 36.95c4.59 7.43 12.55 11.86 21.29 11.86 4.63 0 9.17-1.29 13.12-3.74 11.73-7.25 15.37-22.68 8.12-34.41l-22.88-36.98z"/><path class="st2" d="M1029.1 94.23h-8v19.07c2.81-1.09 5.48-2.43 8-4.01V94.23zM987.1 123.16V87.53c-4.92-4.57-8-11.08-8-18.31v72.24c0-7.21 3.09-13.73 8-18.3zM1021.1 186.12c0 9.37-7.63 17-17 17-9.37 0-17-7.63-17-17v-26.34c-4.92-4.57-8-11.08-8-18.31v44.65c0 13.79 11.21 25 25 25s25-11.21 25-25V163.2c-2.63.7-5.29 1.29-8 1.77v21.15z"/><path class="st2" d="M1091.04 89.44c-3.47 14.94-10.71 28.45-20.65 39.48a88.76 88.76 0 01-5.79 5.85c-8.33 7.69-18.12 13.82-28.9 17.91a86.57 86.57 0 01-6.6 2.21c-.41.12-.81.23-1.22.35-2.23.62-4.49 1.15-6.78 1.59a89.085 89.085 0 01-17 1.63c-9.37 0-17-7.63-17-17s7.63-17 17-17a55.184 55.184 0 0017-2.69 55.602 55.602 0 0024.26-15.87c3.14-3.52 5.82-7.45 7.98-11.69h-9.18a47.498 47.498 0 01-15.06 15.06 47.101 47.101 0 01-25 7.19c-6.56 0-12.54 2.54-17 6.69-4.92 4.57-8 11.08-8 18.31 0 7.22 3.08 13.74 8 18.31a24.886 24.886 0 0017 6.69 97.186 97.186 0 0025-3.26c1.05-.28 2.1-.58 3.14-.89 2.63-.8 5.21-1.7 7.73-2.7a97.47 97.47 0 0028.9-17.92c2.04-1.82 4-3.73 5.87-5.71 16.48-17.43 26.6-40.93 26.6-66.75 0 8.29-4.06 15.66-10.3 20.21z"/><path class="st1" d="M1076.35 44.23h-72.24c-13.79 0-25 11.21-25 25 0 7.22 3.08 13.74 8 18.31a24.886 24.886 0 0017 6.69H1076.35c5.49 0 10.56-1.78 14.69-4.79 6.24-4.55 10.31-11.91 10.31-20.21-.01-13.79-11.22-25-25-25zm0 42h-72.25c-9.37 0-17-7.63-17-17s7.63-17 17-17h72.25c9.37 0 17 7.63 17 17s-7.63 17-17 17zM1004.1 129.38c-6.67 0-12.09 5.42-12.09 12.09s5.42 12.09 12.09 12.09 12.09-5.42 12.09-12.09-5.42-12.09-12.09-12.09zm0 16.18c-2.26 0-4.09-1.84-4.09-4.09s1.84-4.09 4.09-4.09 4.09 1.84 4.09 4.09-1.83 4.09-4.09 4.09z"/><path class="st3" d="M1004.1 57.13c-6.67 0-12.09 5.42-12.09 12.09s5.42 12.09 12.09 12.09 12.09-5.42 12.09-12.09c0-6.66-5.42-12.09-12.09-12.09zm0 16.19c-2.26 0-4.09-1.84-4.09-4.09s1.84-4.09 4.09-4.09 4.09 1.84 4.09 4.09-1.83 4.09-4.09 4.09zM1076.15 57.13c-6.67 0-12.09 5.42-12.09 12.09s5.42 12.09 12.09 12.09 12.09-5.42 12.09-12.09c0-6.66-5.42-12.09-12.09-12.09zm0 16.19c-2.26 0-4.09-1.84-4.09-4.09s1.84-4.09 4.09-4.09 4.09 1.84 4.09 4.09-1.83 4.09-4.09 4.09z"/><path class="st1" d="M1042.14 118.68c-6.67 0-12.09 5.42-12.09 12.09s5.42 12.09 12.09 12.09 12.09-5.42 12.09-12.09-5.42-12.09-12.09-12.09zm0 16.18c-2.26 0-4.09-1.84-4.09-4.09 0-2.26 1.84-4.09 4.09-4.09s4.09 1.84 4.09 4.09c0 2.26-1.83 4.09-4.09 4.09zM847.85 211.12c13.78 0 25-11.21 25-25v-19.65h-8v19.65c0 9.37-7.63 17-17 17s-17-7.63-17-17v-26.34c-4.92-4.57-8-11.08-8-18.31v44.65c.01 13.79 11.22 25 25 25z"/><path class="st1" d="M883.98 44.23c-33.7 0-61.12 27.42-61.12 61.12v36.12c0-7.22 3.08-13.74 8-18.31v-17.81c0-29.29 23.83-53.12 53.12-53.12s53.12 23.83 53.12 53.12v80.77c0 9.37-7.63 17-17 17s-17-7.63-17-17V105.35c0-10.54-8.58-19.12-19.12-19.12-10.54 0-19.12 8.58-19.12 19.12v11.12h8v-11.12c0-6.13 4.99-11.12 11.12-11.12s11.12 4.99 11.12 11.12v80.77c0 13.79 11.21 25 25 25 13.78 0 25-11.21 25-25v-80.77c0-33.71-27.42-61.12-61.12-61.12z"/><path class="st2" d="M847.85 124.47h47.25v-8h-47.25c-6.56 0-12.54 2.54-17 6.69-4.92 4.57-8 11.08-8 18.31 0 7.22 3.08 13.74 8 18.31a24.886 24.886 0 0017 6.69h47.25v-8h-47.25c-9.37 0-17-7.63-17-17s7.63-17 17-17z"/><path class="st3" d="M847.85 129.38c-6.67 0-12.09 5.42-12.09 12.09s5.42 12.09 12.09 12.09 12.09-5.42 12.09-12.09-5.42-12.09-12.09-12.09zm0 16.18c-2.26 0-4.09-1.84-4.09-4.09s1.84-4.09 4.09-4.09 4.09 1.84 4.09 4.09-1.83 4.09-4.09 4.09z"/><path class="st1" d="M920.1 129.38c-6.67 0-12.09 5.42-12.09 12.09s5.42 12.09 12.09 12.09 12.09-5.42 12.09-12.09-5.42-12.09-12.09-12.09zm0 16.18c-2.26 0-4.09-1.84-4.09-4.09s1.84-4.09 4.09-4.09 4.09 1.84 4.09 4.09-1.83 4.09-4.09 4.09z"/><path class="st3" d="M1380.84 159.78v26.34c0 9.37-7.63 17-17 17s-17-7.63-17-17v-19.65h-8v19.65c0 13.79 11.21 25 25 25s25-11.21 25-25v-44.65c0 7.23-3.08 13.74-8 18.31zM1338.84 116.47h8v-11.12c0-10.54-8.58-19.12-19.12-19.12s-19.12 8.58-19.12 19.12v11.12h8v-11.12c0-6.13 4.99-11.12 11.12-11.12 6.13 0 11.12 4.99 11.12 11.12v11.12zM1291.6 211.12c13.79 0 25-11.21 25-25v-19.65h-8v19.65c0 9.37-7.63 17-17 17s-17-7.63-17-17v-26.34c-4.92-4.57-8-11.08-8-18.31v44.65c0 13.79 11.21 25 25 25z"/><path class="st3" d="M1327.72 44.23c-33.7 0-61.12 27.42-61.12 61.12v36.12c0-7.22 3.08-13.74 8-18.31v-17.81c0-29.29 23.83-53.12 53.12-53.12s53.12 23.83 53.12 53.12v17.81c4.92 4.57 8 11.08 8 18.31v-36.12c0-33.71-27.42-61.12-61.12-61.12z"/><path class="st2" d="M1380.84 123.16a24.886 24.886 0 00-17-6.69h-72.25c-6.56 0-12.54 2.54-17 6.69-4.92 4.57-8 11.08-8 18.31 0 7.22 3.08 13.74 8 18.31a24.886 24.886 0 0017 6.69h72.25c6.56 0 12.54-2.54 17-6.69 4.92-4.57 8-11.08 8-18.31 0-7.22-3.08-13.74-8-18.31zm-17 35.31h-72.25c-9.37 0-17-7.63-17-17s7.63-17 17-17h72.25c9.37 0 17 7.63 17 17s-7.62 17-17 17z"/><path class="st1" d="M1291.6 129.38c-6.67 0-12.09 5.42-12.09 12.09s5.42 12.09 12.09 12.09 12.09-5.42 12.09-12.09-5.42-12.09-12.09-12.09zm0 16.18c-2.26 0-4.09-1.84-4.09-4.09s1.84-4.09 4.09-4.09c2.26 0 4.09 1.84 4.09 4.09s-1.84 4.09-4.09 4.09zM1134.35 167.81V69.23c0-9.37 7.63-17 17-17s17 7.63 17 17v91.9h8v-91.9c0-13.79-11.21-25-25-25s-25 11.21-25 25v116.9c0-7.23 3.08-13.75 8-18.32z"/><path class="st3" d="M1223.6 161.12h-72.25c-6.56 0-12.54 2.54-17 6.69-4.92 4.57-8 11.08-8 18.31 0 13.79 11.21 25 25 25h72.25c13.79 0 25-11.21 25-25s-11.22-25-25-25zm0 42h-72.25c-9.37 0-17-7.63-17-17s7.63-17 17-17h72.25c9.37 0 17 7.63 17 17s-7.63 17-17 17z"/><path class="st2" d="M1151.35 174.03c-6.67 0-12.09 5.42-12.09 12.09s5.42 12.09 12.09 12.09 12.09-5.42 12.09-12.09-5.42-12.09-12.09-12.09zm0 16.19c-2.26 0-4.09-1.84-4.09-4.09 0-2.26 1.84-4.09 4.09-4.09s4.09 1.84 4.09 4.09-1.83 4.09-4.09 4.09z"/><path class="st3" d="M309.11 161.12h-47.25v8h47.25c9.37 0 17 7.63 17 17s-7.63 17-17 17h-53.94c-4.57 4.92-11.08 8-18.31 8h72.25c13.79 0 25-11.21 25-25s-11.21-25-25-25zM298.52 111.23c0 9.37-7.63 17-17 17h-19.65v8h19.65c13.79 0 25-11.21 25-25 0-6.56-2.54-12.54-6.69-17h-18.31c9.37 0 17 7.62 17 17z"/><path class="st2" d="M253.87 94.23v91.9c0 9.37-7.63 17-17 17-9.37 0-17-7.63-17-17V87.54c-4.92-4.57-8-11.08-8-18.31v116.9c0 13.79 11.21 25 25 25 7.22 0 13.74-3.08 18.31-8a24.886 24.886 0 006.69-17v-91.9h-8z"/><path class="st1" d="M309.11 44.23h-72.25c-13.79 0-25 11.21-25 25 0 7.22 3.08 13.74 8 18.31 1.07.99 2.23 1.9 3.46 2.69 3.9 2.53 8.55 4 13.54 4h72.25c13.79 0 25-11.21 25-25s-11.21-25-25-25zm0 42h-72.25c-9.37 0-17-7.63-17-17s7.63-17 17-17h72.25c9.37 0 17 7.63 17 17s-7.62 17-17 17zM236.87 99.13c-6.67 0-12.09 5.42-12.09 12.09s5.42 12.09 12.09 12.09 12.09-5.42 12.09-12.09c0-6.66-5.42-12.09-12.09-12.09zm0 16.19c-2.26 0-4.09-1.84-4.09-4.09s1.84-4.09 4.09-4.09c2.26 0 4.09 1.84 4.09 4.09s-1.84 4.09-4.09 4.09z"/><path class="st2" d="M236.87 57.13c-6.67 0-12.09 5.42-12.09 12.09s5.42 12.09 12.09 12.09 12.09-5.42 12.09-12.09-5.42-12.09-12.09-12.09zm0 16.19c-2.26 0-4.09-1.84-4.09-4.09s1.84-4.09 4.09-4.09c2.26 0 4.09 1.84 4.09 4.09s-1.84 4.09-4.09 4.09z"/><path class="st1" d="M236.87 174.03c-6.67 0-12.09 5.42-12.09 12.09s5.42 12.09 12.09 12.09 12.09-5.42 12.09-12.09-5.42-12.09-12.09-12.09zm0 16.19c-2.26 0-4.09-1.84-4.09-4.09 0-2.26 1.84-4.09 4.09-4.09 2.26 0 4.09 1.84 4.09 4.09s-1.84 4.09-4.09 4.09zM716.92 52.23h53.94c9.37 0 17 7.63 17 17s-7.63 17-17 17h-27.6c7.22 0 13.74 3.08 18.31 8h9.29c13.78 0 25-11.21 25-25s-11.21-25-25-25h-72.25c7.22 0 13.74 3.08 18.31 8z"/><path class="st3" d="M716.92 52.23c-4.57-4.92-11.08-8-18.31-8-13.78 0-25 11.21-25 25v42c0-7.22 3.08-13.74 8-18.31V69.23c0-9.37 7.63-17 17-17 9.37 0 17 7.63 17 17v17h8v-17c0-6.56-2.55-12.54-6.69-17z"/><path class="st3" d="M681.61 167.81v-38.28c-4.92-4.57-8-11.08-8-18.31v74.9c0-7.22 3.08-13.74 8-18.31zM715.61 136.23h8v24.9h-8z"/><path class="st2" d="M770.86 161.12h-72.25c-6.56 0-12.54 2.54-17 6.69-4.92 4.57-8 11.08-8 18.31 0 13.79 11.21 25 25 25h72.25c13.78 0 25-11.21 25-25s-11.22-25-25-25zm0 42h-72.25c-9.37 0-17-7.63-17-17s7.63-17 17-17h72.25c9.37 0 17 7.63 17 17s-7.63 17-17 17zM761.57 94.23c-4.57-4.92-11.08-8-18.31-8h-44.65c-4.99 0-9.63 1.47-13.54 4-1.23.8-2.39 1.7-3.46 2.69-4.92 4.57-8 11.08-8 18.31 0 7.22 3.08 13.74 8 18.31a24.886 24.886 0 0017 6.69h44.65c13.78 0 25-11.21 25-25 0-6.57-2.55-12.54-6.69-17zm-18.31 34h-44.65c-9.37 0-17-7.63-17-17s7.63-17 17-17h44.65c9.37 0 17 7.63 17 17s-7.63 17-17 17z"/><path class="st3" d="M698.61 99.13c-6.67 0-12.09 5.42-12.09 12.09s5.42 12.09 12.09 12.09 12.09-5.42 12.09-12.09c0-6.66-5.42-12.09-12.09-12.09zm0 16.19c-2.26 0-4.09-1.84-4.09-4.09s1.84-4.09 4.09-4.09c2.26 0 4.09 1.84 4.09 4.09s-1.83 4.09-4.09 4.09z"/><path class="st1" d="M698.61 57.13c-6.67 0-12.09 5.42-12.09 12.09s5.42 12.09 12.09 12.09 12.09-5.42 12.09-12.09-5.42-12.09-12.09-12.09zm0 16.19c-2.26 0-4.09-1.84-4.09-4.09s1.84-4.09 4.09-4.09c2.26 0 4.09 1.84 4.09 4.09s-1.83 4.09-4.09 4.09zM698.61 174.03c-6.67 0-12.09 5.42-12.09 12.09s5.42 12.09 12.09 12.09 12.09-5.42 12.09-12.09-5.42-12.09-12.09-12.09zm0 16.19c-2.26 0-4.09-1.84-4.09-4.09 0-2.26 1.84-4.09 4.09-4.09 2.26 0 4.09 1.84 4.09 4.09s-1.83 4.09-4.09 4.09z"/><g><path class="st2" d="M542.36 57.13c-6.67 0-12.09 5.42-12.09 12.09s5.42 12.09 12.09 12.09 12.09-5.42 12.09-12.09c.01-6.66-5.42-12.09-12.09-12.09zm0 16.19c-2.26 0-4.09-1.84-4.09-4.09s1.84-4.09 4.09-4.09c2.26 0 4.09 1.84 4.09 4.09s-1.83 4.09-4.09 4.09z"/></g><g><path class="st3" d="M542.36 174.03c-6.67 0-12.09 5.42-12.09 12.09s5.42 12.09 12.09 12.09 12.09-5.42 12.09-12.09-5.42-12.09-12.09-12.09zm0 16.19c-2.26 0-4.09-1.84-4.09-4.09 0-2.26 1.84-4.09 4.09-4.09 2.26 0 4.09 1.84 4.09 4.09.01 2.25-1.83 4.09-4.09 4.09z"/></g><path class="st2" d="M631.61 144.66V150c0 29.29-23.83 53.12-53.12 53.12H542.36c-9.37 0-17-7.63-17-17s7.63-17 17-17h36.12c10.54 0 19.12-8.58 19.12-19.12v-5.34c-4.92-4.57-8-11.08-8-18.31V150c0 6.13-4.99 11.12-11.12 11.12h-36.12c-6.56 0-12.54 2.54-17 6.69-4.92 4.57-8 11.08-8 18.31 0 13.79 11.21 25 25 25h36.12c33.7 0 61.12-27.42 61.12-61.12v-23.65c.01 7.22-3.07 13.74-7.99 18.31z"/><path class="st1" d="M560.67 52.23c-4.57-4.92-11.08-8-18.31-8-13.78 0-25 11.21-25 25v116.9c0-7.22 3.08-13.74 8-18.31V69.22c0-9.37 7.63-17 17-17 9.37 0 17 7.63 17 17v91.9h8v-91.9c0-6.56-2.54-12.53-6.69-16.99z"/><g><path class="st1" d="M614.61 114.25c-6.67 0-12.09 5.42-12.09 12.09s5.42 12.09 12.09 12.09 12.09-5.42 12.09-12.09c0-6.66-5.42-12.09-12.09-12.09zm0 16.19c-2.26 0-4.09-1.84-4.09-4.09 0-2.26 1.84-4.09 4.09-4.09 2.26 0 4.09 1.84 4.09 4.09s-1.83 4.09-4.09 4.09z"/></g><path class="st3" d="M631.61 105.35v21c0 9.37-7.63 17-17 17-9.37 0-17-7.63-17-17v-21c0-10.54-8.58-19.12-19.12-19.12h-11.12v8h11.12c6.13 0 11.12 4.99 11.12 11.12v21c0 7.22 3.08 13.74 8 18.31a24.886 24.886 0 0017 6.69c6.56 0 12.54-2.54 17-6.69 4.92-4.57 8-11.08 8-18.31v-21c0-33.7-27.42-61.12-61.12-61.12h-36.12c7.22 0 13.74 3.08 18.31 8h17.82c29.28 0 53.11 23.83 53.11 53.12z"/><g><path class="st1" d="M1363.84 129.38c-6.67 0-12.09 5.42-12.09 12.09s5.42 12.09 12.09 12.09 12.09-5.42 12.09-12.09-5.42-12.09-12.09-12.09zm0 16.18c-2.26 0-4.09-1.84-4.09-4.09s1.84-4.09 4.09-4.09c2.26 0 4.09 1.84 4.09 4.09s-1.83 4.09-4.09 4.09z"/></g></svg>